<svg version="1.1" id="Layer_1" xmlns="http://www.w3.org/2000/svg" xmlns:xlink="http://www.w3.org/1999/xlink" x="0px" y="0px"
	 width="100%" viewBox="0 0 341 148" enable-background="new 0 0 341 148" xml:space="preserve">
<path fill="#FFFDFE" opacity="1.000000" stroke="none" 
	d="
M214.000000,149.000000 
	C142.666672,149.000000 71.833336,149.000000 1.000000,149.000000 
	C1.000000,99.666664 1.000000,50.333332 1.000000,1.000000 
	C114.666664,1.000000 228.333328,1.000000 342.000000,1.000000 
	C342.000000,50.333332 342.000000,99.666664 342.000000,149.000000 
	C299.500000,149.000000 257.000000,149.000000 214.000000,149.000000 
M183.019028,143.108124 
	C183.019028,143.108124 183.097900,143.147217 183.866882,143.193008 
	C186.842453,141.713043 189.818039,140.233078 193.025299,138.637894 
	C188.787979,132.826736 185.969131,136.760574 182.233170,137.909058 
	C177.973785,137.419159 174.815643,135.706757 175.037338,130.798523 
	C175.265793,125.740494 178.814163,124.712471 183.698059,124.946884 
	C186.537399,125.941177 189.477509,129.087357 192.727478,123.379723 
	C189.778778,121.930374 186.879715,120.505409 183.115906,118.946533 
	C173.320312,118.791458 167.950500,123.210381 168.009964,131.377472 
	C168.063950,138.793671 173.143616,143.210190 181.902496,143.473389 
	C182.303024,143.344086 182.703552,143.214767 183.019028,143.108124 
M150.819046,84.781357 
	C150.942368,85.522064 151.065674,86.262779 151.143692,87.565727 
	C151.426254,88.044891 151.708817,88.524055 151.977295,89.707329 
	C153.013611,91.464767 154.049927,93.222206 155.291000,95.619392 
	C164.178146,105.130089 178.784180,106.264961 188.007095,97.982925 
	C189.619278,96.535202 190.563904,94.344086 191.816849,92.496300 
	C189.724136,91.312141 187.738876,89.753769 185.491440,89.108414 
	C184.435150,88.805092 182.670868,90.021858 181.579056,90.959320 
	C177.828461,94.179619 173.581726,95.191406 169.023407,93.572891 
	C165.321854,92.258583 162.465729,89.798424 161.975540,84.911133 
	C172.619186,84.911133 183.021255,84.911133 193.296127,84.911133 
	C195.457458,75.997765 191.088684,67.087685 182.739227,63.141148 
	C175.379837,59.662586 159.598206,60.517570 154.722351,69.482872 
	C153.819122,71.322914 152.915878,73.162964 151.789673,75.435493 
	C151.789673,75.435493 151.751129,75.920555 151.253983,76.434654 
	C151.151352,77.615860 151.048721,78.797066 150.633209,80.495384 
	C150.729614,81.674980 150.826019,82.854576 150.819046,84.781357 
M155.819855,143.147919 
	C161.922974,142.285767 165.453461,139.310242 165.831863,134.709656 
	C166.172516,130.568069 162.881439,127.302658 156.856155,125.861038 
	C155.915009,125.635849 154.933289,125.580376 153.193863,125.179924 
	C150.355377,124.511177 146.186752,125.300179 146.116455,121.175087 
	C146.097656,120.071770 150.576981,118.891792 153.693268,117.981110 
	C157.644394,119.040337 160.703934,124.777084 165.698029,120.225510 
	C163.382568,113.989456 160.406784,112.042564 152.128494,111.850891 
	C150.141083,111.965195 148.094070,111.813614 146.177383,112.243340 
	C140.274673,113.566696 137.120850,117.769798 137.941849,122.863861 
	C138.602585,126.963570 142.960205,129.659592 149.994049,130.482407 
	C149.994049,130.482407 150.435852,130.700378 150.435852,130.700378 
	C150.435852,130.700378 150.928238,130.690979 151.601929,130.878006 
	C152.066650,130.884033 152.531387,130.890045 153.655533,131.219772 
	C155.116547,132.273621 156.577560,133.327454 158.038574,134.381302 
	C156.485413,135.485474 154.932251,136.589630 153.379120,137.693848 
	C153.247955,137.787079 153.117142,137.880783 152.237350,137.866791 
	C149.916916,137.061661 146.798080,136.927338 145.441269,135.312531 
	C142.565475,131.889893 140.141571,133.198975 137.245544,134.509583 
	C140.050964,142.114197 146.632858,145.218491 155.819855,143.147919 
M264.197601,118.848457 
	C256.180145,119.688065 251.163055,125.483246 252.088287,132.835739 
	C253.000198,140.082275 259.685303,144.626389 268.079346,143.258713 
	C274.727997,141.760010 278.345428,137.949646 278.820923,131.944321 
	C279.212219,127.002113 276.192474,121.773209 271.489166,119.992729 
	C269.486053,119.234444 267.173737,119.293053 264.197601,118.848457 
M287.197815,107.725121 
	C286.141785,107.785339 285.085785,107.845558 283.370605,107.941711 
	C283.195709,108.312714 283.020813,108.683716 282.652832,109.969460 
	C282.719788,120.630898 282.786743,131.292343 282.894012,142.573273 
	C283.259399,142.704178 283.624756,142.835098 284.884216,143.137009 
	C286.265961,143.028793 287.647705,142.920578 288.983521,142.815964 
	C288.983521,131.156647 288.983521,120.076080 288.986206,108.389732 
	C288.648376,108.231422 288.310547,108.073120 287.197815,107.725121 
M230.329071,120.156662 
	C225.057968,122.893074 223.238281,127.381668 223.880493,133.050323 
	C224.446762,138.048676 227.379333,141.130096 232.763519,143.021729 
	C242.078323,145.243500 249.608597,140.349243 250.137329,131.992142 
	C250.763550,122.094391 240.979416,115.901649 230.329071,120.156662 
M208.790009,124.759338 
	C212.179581,125.136658 213.117386,127.373322 213.100662,130.381378 
	C213.077835,134.489471 213.094955,138.597778 213.094955,142.826172 
	C215.698730,142.826172 217.606796,142.826172 220.009216,142.826172 
	C220.009216,138.405060 220.049866,134.276382 220.000763,130.148773 
	C219.898010,121.509926 216.661087,118.546745 207.273224,119.106873 
	C205.928391,119.585793 204.583557,120.064705 202.714996,120.730133 
	C202.714996,116.631683 202.714996,113.027306 202.714996,109.164307 
	C200.390854,109.164307 198.483368,109.164307 196.283997,109.164307 
	C196.283997,120.428268 196.283997,131.478195 196.283997,142.649078 
	C198.550171,142.649078 200.557327,142.649078 202.897217,142.649078 
	C202.897217,138.737198 203.034103,135.256073 202.860733,131.790482 
	C202.666901,127.915733 204.002884,125.333038 208.790009,124.759338 
M65.755844,102.525864 
	C69.327499,102.525864 72.899147,102.525864 76.796310,102.525864 
	C76.796310,85.367287 76.819824,68.799339 76.720207,52.232132 
	C76.715683,51.479965 75.599594,50.734486 74.087021,49.854496 
	C71.171753,49.854496 68.256485,49.854496 65.264526,49.854496 
	C65.264526,67.608063 65.264526,84.762123 65.755844,102.525864 
M316.988068,86.982269 
	C313.205017,78.559677 309.421936,70.137077 305.781921,62.032944 
	C301.783173,62.490734 298.436035,62.873928 294.416321,63.334122 
	C299.083984,73.473396 303.574524,83.227867 308.155182,93.709274 
	C311.518402,98.604507 311.159027,103.404945 308.382782,108.536972 
	C306.561340,111.904007 305.548859,115.708611 304.018158,119.726601 
	C305.979126,119.726601 307.168976,119.556816 308.293610,119.755783 
	C313.357025,120.651566 315.971771,118.617821 317.815887,113.722328 
	C320.969910,105.349449 325.011017,97.312111 328.640564,89.116577 
	C332.444031,80.528381 336.201630,71.919868 340.181183,62.860546 
	C338.357330,62.860546 337.174469,63.027672 336.054962,62.832146 
	C330.689606,61.895065 327.667969,63.767353 325.777283,69.205048 
	C323.563049,75.573395 320.122711,81.515442 316.988068,86.982269 
M278.112122,44.326626 
	C278.045013,51.176262 277.977905,58.025898 277.272705,65.399170 
	C276.285065,64.952568 275.204529,64.641571 274.324219,64.038345 
	C265.651550,58.095604 251.597107,61.626953 246.759384,71.108765 
	C242.095367,80.250099 243.426010,91.873856 250.420456,98.266624 
	C257.916473,105.117828 267.732452,105.102821 277.552979,98.225143 
	C279.123260,103.326065 280.843079,103.889305 288.954803,101.804466 
	C288.954803,83.094887 288.961914,64.315971 288.913177,45.537193 
	C288.911987,45.077221 288.291077,44.618858 287.500793,44.035660 
	C287.500793,44.035660 287.034393,44.125217 286.150360,43.968491 
	C283.759979,44.018955 281.369568,44.069416 278.112122,44.326626 
M142.873398,91.661758 
	C141.284302,87.903648 139.695221,84.145546 137.989975,80.112747 
	C137.859299,80.199524 138.360352,79.813515 138.907715,79.511375 
	C145.879364,75.663139 147.011063,69.256813 145.899429,62.304859 
	C144.901703,56.065357 140.599274,51.787594 134.586502,51.142948 
	C123.640518,49.969395 112.577339,49.888817 101.567627,49.352417 
	C101.567627,67.831528 101.567627,85.043610 101.567627,102.296471 
	C105.529297,102.296471 109.109810,102.296471 113.155853,102.296471 
	C113.155853,95.699486 113.155853,89.442474 113.155853,83.257034 
	C126.339867,81.678810 128.814575,83.081985 131.025970,92.724457 
	C133.856018,105.064430 131.958542,102.565361 144.207230,102.791046 
	C144.679337,102.799744 145.155411,102.594170 146.018082,102.401825 
	C144.997986,99.031227 144.001633,95.739052 142.873398,91.661758 
M4.418968,100.859413 
	C7.277259,101.455620 10.125746,102.405457 12.998358,102.485092 
	C14.260054,102.520073 16.212856,101.059937 16.756857,99.804268 
	C20.746321,90.595749 20.658785,90.557823 30.650345,90.557823 
	C31.315557,90.557823 31.981102,90.543953 32.645931,90.559906 
	C42.309944,90.791878 40.093262,88.957642 43.697334,98.264549 
	C44.279350,99.767502 45.550583,101.985909 46.688812,102.105377 
	C49.991707,102.452049 53.388996,101.899345 57.157673,101.675240 
	C52.264080,87.802795 47.609268,74.508926 42.883560,61.240322 
	C38.735676,49.594109 38.700603,49.731640 26.156878,49.735355 
	C23.073284,49.736267 21.872231,50.878185 20.941999,53.592243 
	C15.615144,69.133995 10.126717,84.620369 4.418968,100.859413 
M198.760712,73.493904 
	C201.844498,74.655510 204.928268,75.817108 207.884552,76.930687 
	C211.274155,70.485725 217.866913,67.985085 222.761292,71.037575 
	C224.192368,71.930099 224.821030,74.109230 225.817474,75.698639 
	C224.551773,76.485107 223.375397,77.660004 222.001495,77.975937 
	C219.269913,78.604065 216.391953,78.579697 213.643814,79.155708 
	C210.253403,79.866341 206.752762,80.509247 203.624222,81.907433 
	C198.482025,84.205536 196.313232,88.606590 197.129547,93.582703 
	C198.017654,98.996460 201.376129,102.161980 207.146057,103.104874 
	C213.810364,104.193939 219.957962,102.858078 225.529114,98.843208 
	C226.699020,103.084297 229.397583,103.734749 236.711227,101.802696 
	C236.711227,93.088188 236.985428,84.284531 236.624847,75.506943 
	C236.334122,68.430183 232.375809,63.731754 225.390182,62.017216 
	C222.208496,61.236313 218.699280,61.864880 215.347458,61.687271 
	C206.980286,61.243904 201.319809,64.973923 198.760712,73.493904 
M66.872589,34.298115 
	C58.402264,33.147465 55.180965,26.455990 51.951874,19.458942 
	C50.144630,30.243174 42.969215,34.151493 33.423962,35.547813 
	C43.388615,36.736671 50.280655,41.064442 51.666065,52.464188 
	C57.687561,42.104969 57.694870,42.117306 67.443771,36.339664 
	C67.733864,36.167744 67.497215,35.107021 66.872589,34.298115 
M65.794991,16.505606 
	C66.378464,17.238195 66.961937,17.970787 67.554161,18.714375 
	C71.887131,15.799243 71.445122,13.077461 67.981201,10.785455 
	C66.057899,12.262985 64.315918,13.601213 62.379997,15.088438 
	C63.422424,15.487453 64.301674,15.824005 65.794991,16.505606 
z"/>
<path fill="#E92A70" opacity="1.000000" stroke="none" 
	d="
M142.939331,92.054321 
	C144.001633,95.739052 144.997986,99.031227 146.018082,102.401825 
	C145.155411,102.594170 144.679337,102.799744 144.207230,102.791046 
	C131.958542,102.565361 133.856018,105.064430 131.025970,92.724457 
	C128.814575,83.081985 126.339867,81.678810 113.155853,83.257034 
	C113.155853,89.442474 113.155853,95.699486 113.155853,102.296471 
	C109.109810,102.296471 105.529297,102.296471 101.567627,102.296471 
	C101.567627,85.043610 101.567627,67.831528 101.567627,49.352417 
	C112.577339,49.888817 123.640518,49.969395 134.586502,51.142948 
	C140.599274,51.787594 144.901703,56.065357 145.899429,62.304859 
	C147.011063,69.256813 145.879364,75.663139 138.907715,79.511375 
	C138.360352,79.813515 137.859299,80.199524 137.989975,80.112747 
	C139.695221,84.145546 141.284302,87.903648 142.939331,92.054321 
M126.085922,73.790741 
	C126.738716,73.678749 127.393272,73.576126 128.044006,73.453239 
	C132.110641,72.685280 134.861618,70.410637 134.708435,66.127724 
	C134.553574,61.797081 131.517822,59.633797 127.459305,59.401054 
	C122.744583,59.130688 118.002480,59.338024 113.306267,59.338024 
	C113.306267,64.701691 113.306267,69.596794 113.306267,75.232727 
	C117.554817,74.750244 121.395920,74.314034 126.085922,73.790741 
z"/>
<path fill="#E02165" opacity="1.000000" stroke="none" 
	d="
M287.959198,44.159752 
	C288.291077,44.618858 288.911987,45.077221 288.913177,45.537193 
	C288.961914,64.315971 288.954803,83.094887 288.954803,101.804466 
	C280.843079,103.889305 279.123260,103.326065 277.552979,98.225143 
	C267.732452,105.102821 257.916473,105.117828 250.420456,98.266624 
	C243.426010,91.873856 242.095367,80.250099 246.759384,71.108765 
	C251.597107,61.626953 265.651550,58.095604 274.324219,64.038345 
	C275.204529,64.641571 276.285065,64.952568 277.870972,65.272003 
	C278.639252,58.136517 278.809204,51.128201 278.979187,44.119881 
	C281.369568,44.069416 283.759979,44.018955 286.668610,44.201199 
	C287.444305,44.342522 287.701752,44.251141 287.959198,44.159752 
M263.220215,71.128120 
	C258.681549,72.732010 256.318573,76.145042 255.398773,80.683647 
	C254.024384,87.465446 260.908936,96.133751 266.790314,95.085953 
	C273.829773,93.831833 278.590729,87.841858 277.741180,81.308151 
	C276.791290,74.002464 272.012665,70.407616 263.220215,71.128120 
z"/>
<path fill="#EC2B73" opacity="1.000000" stroke="none" 
	d="
M4.556052,100.492477 
	C10.126717,84.620369 15.615144,69.133995 20.941999,53.592243 
	C21.872231,50.878185 23.073284,49.736267 26.156878,49.735355 
	C38.700603,49.731640 38.735676,49.594109 42.883560,61.240322 
	C47.609268,74.508926 52.264080,87.802795 57.157673,101.675240 
	C53.388996,101.899345 49.991707,102.452049 46.688812,102.105377 
	C45.550583,101.985909 44.279350,99.767502 43.697334,98.264549 
	C40.093262,88.957642 42.309944,90.791878 32.645931,90.559906 
	C31.981102,90.543953 31.315557,90.557823 30.650345,90.557823 
	C20.658785,90.557823 20.746321,90.595749 16.756857,99.804268 
	C16.212856,101.059937 14.260054,102.520073 12.998358,102.485092 
	C10.125746,102.405457 7.277259,101.455620 4.556052,100.492477 
M29.595501,81.829643 
	C31.250572,81.826141 33.048534,82.217117 34.512760,81.686745 
	C35.568890,81.304192 37.071918,79.434967 36.849739,78.674812 
	C35.096020,72.674789 32.975338,66.782036 30.575712,59.699821 
	C27.902407,67.712997 25.687958,74.350754 23.285162,81.553078 
	C25.784176,81.681030 27.233765,81.755257 29.595501,81.829643 
z"/>
<path fill="#E3266A" opacity="1.000000" stroke="none" 
	d="
M198.799988,73.092728 
	C201.319809,64.973923 206.980286,61.243904 215.347458,61.687271 
	C218.699280,61.864880 222.208496,61.236313 225.390182,62.017216 
	C232.375809,63.731754 236.334122,68.430183 236.624847,75.506943 
	C236.985428,84.284531 236.711227,93.088188 236.711227,101.802696 
	C229.397583,103.734749 226.699020,103.084297 225.529114,98.843208 
	C219.957962,102.858078 213.810364,104.193939 207.146057,103.104874 
	C201.376129,102.161980 198.017654,98.996460 197.129547,93.582703 
	C196.313232,88.606590 198.482025,84.205536 203.624222,81.907433 
	C206.752762,80.509247 210.253403,79.866341 213.643814,79.155708 
	C216.391953,78.579697 219.269913,78.604065 222.001495,77.975937 
	C223.375397,77.660004 224.551773,76.485107 225.817474,75.698639 
	C224.821030,74.109230 224.192368,71.930099 222.761292,71.037575 
	C217.866913,67.985085 211.274155,70.485725 207.884552,76.930687 
	C204.928268,75.817108 201.844498,74.655510 198.799988,73.092728 
M225.804703,87.011131 
	C225.505402,86.364449 225.123260,85.128838 224.918991,85.157570 
	C220.324585,85.803909 215.681061,86.330505 211.215591,87.515617 
	C209.977264,87.844261 208.373535,90.357346 208.580887,91.592255 
	C208.797729,92.883568 210.836914,94.441254 212.353348,94.839340 
	C217.870651,96.287689 222.681519,93.562889 225.804703,87.011131 
z"/>
<path fill="#E6266B" opacity="1.000000" stroke="none" 
	d="
M155.223175,69.003021 
	C159.598206,60.517570 175.379837,59.662586 182.739227,63.141148 
	C191.088684,67.087685 195.457458,75.997765 193.296127,84.911133 
	C183.021255,84.911133 172.619186,84.911133 161.975540,84.911133 
	C162.465729,89.798424 165.321854,92.258583 169.023407,93.572891 
	C173.581726,95.191406 177.828461,94.179619 181.579056,90.959320 
	C182.670868,90.021858 184.435150,88.805092 185.491440,89.108414 
	C187.738876,89.753769 189.724136,91.312141 191.816849,92.496300 
	C190.563904,94.344086 189.619278,96.535202 188.007095,97.982925 
	C178.784180,106.264961 164.178146,105.130089 155.598450,95.287872 
	C156.600479,94.056076 157.873566,93.170715 157.897217,92.253166 
	C158.070816,85.516365 158.112488,78.768913 157.872818,72.036308 
	C157.835754,70.995094 156.147720,70.012642 155.223175,69.003021 
M177.254150,77.832344 
	C179.114899,77.832344 180.975647,77.832344 183.305191,77.832344 
	C181.063675,71.811119 177.354279,69.843239 172.126953,69.907890 
	C166.766556,69.974205 163.631332,72.737518 161.481354,77.832260 
	C166.745285,77.832260 171.531921,77.832260 177.254150,77.832344 
z"/>
<path fill="#E3266A" opacity="1.000000" stroke="none" 
	d="
M317.214233,87.642403 
	C320.122711,81.515442 323.563049,75.573395 325.777283,69.205048 
	C327.667969,63.767353 330.689606,61.895065 336.054962,62.832146 
	C337.174469,63.027672 338.357330,62.860546 340.181183,62.860546 
	C336.201630,71.919868 332.444031,80.528381 328.640564,89.116577 
	C325.011017,97.312111 320.969910,105.349449 317.815887,113.722328 
	C315.971771,118.617821 313.357025,120.651566 308.293610,119.755783 
	C307.168976,119.556816 305.979126,119.726601 304.018158,119.726601 
	C305.548859,115.708611 306.561340,111.904007 308.382782,108.536972 
	C311.159027,103.404945 311.518402,98.604507 308.386108,93.134766 
	C311.482727,90.920975 314.348480,89.281685 317.214233,87.642403 
z"/>
<path fill="#EB2A72" opacity="1.000000" stroke="none" 
	d="
M65.264526,101.916183 
	C65.264526,84.762123 65.264526,67.608063 65.264526,49.854496 
	C68.256485,49.854496 71.171753,49.854496 74.550323,50.389828 
	C75.015091,65.150955 75.017044,79.376755 75.017792,93.602547 
	C75.018143,100.411942 75.014778,100.387878 68.072998,101.058723 
	C67.118141,101.151009 66.199783,101.621040 65.264526,101.916183 
z"/>
<path fill="#E62A6F" opacity="1.000000" stroke="none" 
	d="
M67.189377,34.379410 
	C67.497215,35.107021 67.733864,36.167744 67.443771,36.339664 
	C57.694870,42.117306 57.687561,42.104969 51.666065,52.464188 
	C50.280655,41.064442 43.388615,36.736671 33.423962,35.547813 
	C42.969215,34.151493 50.144630,30.243174 51.951874,19.458942 
	C55.180965,26.455990 58.402264,33.147465 67.189377,34.379410 
z"/>
<path fill="#DE1D62" opacity="1.000000" stroke="none" 
	d="
M317.101135,87.312332 
	C314.348480,89.281685 311.482727,90.920975 308.341003,92.771301 
	C303.574524,83.227867 299.083984,73.473396 294.416321,63.334122 
	C298.436035,62.873928 301.783173,62.490734 305.781921,62.032944 
	C309.421936,70.137077 313.205017,78.559677 317.101135,87.312332 
z"/>
<path fill="#F8A07A" opacity="1.000000" stroke="none" 
	d="
M208.010056,124.542641 
	C204.002884,125.333038 202.666901,127.915733 202.860733,131.790482 
	C203.034103,135.256073 202.897217,138.737198 202.897217,142.649078 
	C200.557327,142.649078 198.550171,142.649078 196.283997,142.649078 
	C196.283997,131.478195 196.283997,120.428268 196.283997,109.164307 
	C198.483368,109.164307 200.390854,109.164307 202.714996,109.164307 
	C202.714996,113.027306 202.714996,116.631683 202.714996,120.730133 
	C204.583557,120.064705 205.928391,119.585793 207.635437,119.492401 
	C208.001770,121.432838 208.005905,122.987740 208.010056,124.542641 
z"/>
<path fill="#F47D7F" opacity="1.000000" stroke="none" 
	d="
M231.004379,120.020699 
	C240.979416,115.901649 250.763550,122.094391 250.137329,131.992142 
	C249.608597,140.349243 242.078323,145.243500 232.384888,142.512634 
	C232.339233,140.321915 232.672195,138.640274 233.378098,137.014282 
	C237.014633,138.446411 240.367096,138.195435 242.128006,135.178818 
	C243.241959,133.270523 243.398911,130.078568 242.626480,127.957001 
	C241.333084,124.404541 237.833023,124.444221 234.552475,125.010292 
	C234.063614,125.094643 233.582932,125.226357 233.070435,124.963898 
	C232.363052,123.067978 231.683716,121.544342 231.004379,120.020699 
z"/>
<path fill="#FAB370" opacity="1.000000" stroke="none" 
	d="
M183.000977,124.630775 
	C178.814163,124.712471 175.265793,125.740494 175.037338,130.798523 
	C174.815643,135.706757 177.973785,137.419159 182.615356,138.371948 
	C183.031006,140.272308 183.064453,141.709763 183.097900,143.147217 
	C183.097900,143.147217 183.019028,143.108124 182.670395,143.093964 
	C182.062164,143.101135 181.802551,143.122437 181.542953,143.143753 
	C173.143616,143.210190 168.063950,138.793671 168.009964,131.377472 
	C167.950500,123.210381 173.320312,118.791458 183.399094,119.340439 
	C183.455170,121.366493 183.228073,122.998634 183.000977,124.630775 
z"/>
<path fill="#EF3E7D" opacity="1.000000" stroke="none" 
	d="
M282.853699,141.953781 
	C282.786743,131.292343 282.719788,120.630898 283.006409,109.388046 
	C283.583221,108.506355 283.806488,108.206062 284.029755,107.905769 
	C285.085785,107.845558 286.141785,107.785339 287.692749,108.052078 
	C288.452942,108.584534 288.718231,108.790024 288.983521,108.995514 
	C288.983521,120.076080 288.983521,131.156647 288.983521,142.815964 
	C287.647705,142.920578 286.265961,143.028793 284.308411,142.822998 
	C283.439606,142.323929 283.146667,142.138855 282.853699,141.953781 
z"/>
<path fill="#F26F83" opacity="1.000000" stroke="none" 
	d="
M267.349274,143.209152 
	C259.685303,144.626389 253.000198,140.082275 252.088287,132.835739 
	C251.163055,125.483246 256.180145,119.688065 264.596832,119.308495 
	C266.002991,121.459892 267.009888,123.151253 267.596863,124.854286 
	C263.170837,124.497787 259.773529,125.353294 258.955322,129.918488 
	C258.116608,134.597961 260.891663,136.884506 265.002747,138.433456 
	C265.782318,140.298538 266.565796,141.753845 267.349274,143.209152 
z"/>
<path fill="#FECA62" opacity="1.000000" stroke="none" 
	d="
M152.991287,117.747009 
	C150.576981,118.891792 146.097656,120.071770 146.116455,121.175087 
	C146.186752,125.300179 150.355377,124.511177 153.580688,125.654556 
	C153.643723,127.718140 153.319916,129.307098 152.996109,130.896057 
	C152.531387,130.890045 152.066650,130.884033 151.100006,130.608795 
	C150.313019,130.151001 150.000580,130.075897 149.660782,130.114243 
	C142.960205,129.659592 138.602585,126.963570 137.941849,122.863861 
	C137.120850,117.769798 140.274673,113.566696 146.177383,112.243340 
	C148.094070,111.813614 150.141083,111.965195 152.564743,112.320213 
	C152.997757,114.442024 152.994522,116.094521 152.991287,117.747009 
z"/>
<path fill="#F15C7F" opacity="1.000000" stroke="none" 
	d="
M268.016815,124.842613 
	C267.009888,123.151253 266.002991,121.459892 264.998993,119.374481 
	C267.173737,119.293053 269.486053,119.234444 271.489166,119.992729 
	C276.192474,121.773209 279.212219,127.002113 278.820923,131.944321 
	C278.345428,137.949646 274.727997,141.760010 267.714294,143.233932 
	C266.565796,141.753845 265.782318,140.298538 265.374695,138.379639 
	C267.837158,136.140152 270.797577,134.752747 271.801361,132.495316 
	C273.231201,129.279617 271.019379,126.562767 268.016815,124.842613 
z"/>
<path fill="#F6927C" opacity="1.000000" stroke="none" 
	d="
M208.400024,124.650986 
	C208.005905,122.987740 208.001770,121.432838 208.000122,119.484100 
	C216.661087,118.546745 219.898010,121.509926 220.000763,130.148773 
	C220.049866,134.276382 220.009216,138.405060 220.009216,142.826172 
	C217.606796,142.826172 215.698730,142.826172 213.094955,142.826172 
	C213.094955,138.597778 213.077835,134.489471 213.100662,130.381378 
	C213.117386,127.373322 212.179581,125.136658 208.400024,124.650986 
z"/>
<path fill="#FDC26C" opacity="1.000000" stroke="none" 
	d="
M153.325821,131.057922 
	C153.319916,129.307098 153.643723,127.718140 153.968933,125.787811 
	C154.933289,125.580376 155.915009,125.635849 156.856155,125.861038 
	C162.881439,127.302658 166.172516,130.568069 165.831863,134.709656 
	C165.453461,139.310242 161.922974,142.285767 155.412064,142.768982 
	C154.331573,140.918121 153.658875,139.446198 152.986176,137.974274 
	C153.117142,137.880783 153.247955,137.787079 153.379120,137.693848 
	C154.932251,136.589630 156.485413,135.485474 158.038574,134.381302 
	C156.577560,133.327454 155.116547,132.273621 153.325821,131.057922 
z"/>
<path fill="#E8266E" opacity="1.000000" stroke="none" 
	d="
M154.972763,69.242943 
	C156.147720,70.012642 157.835754,70.995094 157.872818,72.036308 
	C158.112488,78.768913 158.070816,85.516365 157.897217,92.253166 
	C157.873566,93.170715 156.600479,94.056076 155.496063,94.967995 
	C154.049927,93.222206 153.013611,91.464767 152.210114,89.197617 
	C152.024963,88.126427 151.606964,87.564957 151.188980,87.003487 
	C151.065674,86.262779 150.942368,85.522064 151.145294,84.200058 
	C151.296387,82.405266 151.121246,81.191772 150.946091,79.978271 
	C151.048721,78.797066 151.151352,77.615860 151.697723,76.139404 
	C152.243179,75.762428 152.441864,75.624863 152.431854,75.607475 
	C152.309921,75.395737 152.157303,75.201660 152.012650,75.003006 
	C152.915878,73.162964 153.819122,71.322914 154.972763,69.242943 
z"/>
<path fill="#F5887D" opacity="1.000000" stroke="none" 
	d="
M230.666718,120.088684 
	C231.683716,121.544342 232.363052,123.067978 232.866455,125.231003 
	C228.790680,129.680099 229.459579,133.360184 233.005157,136.958649 
	C232.672195,138.640274 232.339233,140.321915 232.010422,142.377014 
	C227.379333,141.130096 224.446762,138.048676 223.880493,133.050323 
	C223.238281,127.381668 225.057968,122.893074 230.666718,120.088684 
z"/>
<path fill="#EB3A7A" opacity="1.000000" stroke="none" 
	d="
M65.510185,102.221024 
	C66.199783,101.621040 67.118141,101.151009 68.072998,101.058723 
	C75.014778,100.387878 75.018143,100.411942 75.017792,93.602547 
	C75.017044,79.376755 75.015091,65.150955 75.007431,50.455524 
	C75.599594,50.734486 76.715683,51.479965 76.720207,52.232132 
	C76.819824,68.799339 76.796310,85.367287 76.796310,102.525864 
	C72.899147,102.525864 69.327499,102.525864 65.510185,102.221024 
z"/>
<path fill="#FECB67" opacity="1.000000" stroke="none" 
	d="
M152.611755,137.920532 
	C153.658875,139.446198 154.331573,140.918121 155.012497,142.752762 
	C146.632858,145.218491 140.050964,142.114197 137.245544,134.509583 
	C140.141571,133.198975 142.565475,131.889893 145.441269,135.312531 
	C146.798080,136.927338 149.916916,137.061661 152.611755,137.920532 
z"/>
<path fill="#FDC16B" opacity="1.000000" stroke="none" 
	d="
M153.342285,117.864059 
	C152.994522,116.094521 152.997757,114.442024 153.000305,112.371445 
	C160.406784,112.042564 163.382568,113.989456 165.698029,120.225510 
	C160.703934,124.777084 157.644394,119.040337 153.342285,117.864059 
z"/>
<path fill="#F9AC76" opacity="1.000000" stroke="none" 
	d="
M183.482391,143.170105 
	C183.064453,141.709763 183.031006,140.272308 182.994507,138.405792 
	C185.969131,136.760574 188.787979,132.826736 193.025299,138.637894 
	C189.818039,140.233078 186.842453,141.713043 183.482391,143.170105 
z"/>
<path fill="#F9A873" opacity="1.000000" stroke="none" 
	d="
M183.349518,124.788834 
	C183.228073,122.998634 183.455170,121.366493 183.831451,119.407394 
	C186.879715,120.505409 189.778778,121.930374 192.727478,123.379723 
	C189.477509,129.087357 186.537399,125.941177 183.349518,124.788834 
z"/>
<path fill="#E82F73" opacity="1.000000" stroke="none" 
	d="
M65.487953,16.333082 
	C64.301674,15.824005 63.422424,15.487453 62.379997,15.088438 
	C64.315918,13.601213 66.057899,12.262985 67.981201,10.785455 
	C71.445122,13.077461 71.887131,15.799243 67.554161,18.714375 
	C66.961937,17.970787 66.378464,17.238195 65.487953,16.333082 
z"/>
<path fill="#DC0056" opacity="1.000000" stroke="none" 
	d="
M278.545654,44.223251 
	C278.809204,51.128201 278.639252,58.136517 278.190002,65.010185 
	C277.977905,58.025898 278.045013,51.176262 278.545654,44.223251 
z"/>
<path fill="#E6266B" opacity="1.000000" stroke="none" 
	d="
M150.789642,80.236832 
	C151.121246,81.191772 151.296387,82.405266 151.196976,83.826469 
	C150.826019,82.854576 150.729614,81.674980 150.789642,80.236832 
z"/>
<path fill="#E6266B" opacity="1.000000" stroke="none" 
	d="
M151.166336,87.284607 
	C151.606964,87.564957 152.024963,88.126427 152.217163,88.845551 
	C151.708817,88.524055 151.426254,88.044891 151.166336,87.284607 
z"/>
<path fill="#EC3075" opacity="1.000000" stroke="none" 
	d="
M288.984863,108.692619 
	C288.718231,108.790024 288.452942,108.584534 288.080200,108.146927 
	C288.310547,108.073120 288.648376,108.231422 288.984863,108.692619 
z"/>
<path fill="#EC3075" opacity="1.000000" stroke="none" 
	d="
M283.700195,107.923737 
	C283.806488,108.206062 283.583221,108.506355 283.102936,108.930679 
	C283.020813,108.683716 283.195709,108.312714 283.700195,107.923737 
z"/>
<path fill="#E6266B" opacity="1.000000" stroke="none" 
	d="
M151.901154,75.219254 
	C152.157303,75.201660 152.309921,75.395737 152.431854,75.607475 
	C152.441864,75.624863 152.243179,75.762428 151.946289,75.882355 
	C151.751129,75.920555 151.789673,75.435493 151.901154,75.219254 
z"/>
<path fill="#FDC26C" opacity="1.000000" stroke="none" 
	d="
M149.827423,130.298325 
	C150.000580,130.075897 150.313019,130.151001 150.763168,130.515289 
	C150.928238,130.690979 150.435852,130.700378 150.435852,130.700378 
	C150.435852,130.700378 149.994049,130.482407 149.827423,130.298325 
z"/>
<path fill="#DC0056" opacity="1.000000" stroke="none" 
	d="
M287.729980,44.097710 
	C287.701752,44.251141 287.444305,44.342522 287.110626,44.279564 
	C287.034393,44.125217 287.500793,44.035660 287.729980,44.097710 
z"/>
<path fill="#EC3075" opacity="1.000000" stroke="none" 
	d="
M282.873840,142.263519 
	C283.146667,142.138855 283.439606,142.323929 283.861359,142.737503 
	C283.624756,142.835098 283.259399,142.704178 282.873840,142.263519 
z"/>
<path fill="#F9AC76" opacity="1.000000" stroke="none" 
	d="
M181.722717,143.308563 
	C181.802551,143.122437 182.062164,143.101135 182.712921,143.082642 
	C182.703552,143.214767 182.303024,143.344086 181.722717,143.308563 
z"/>
<path fill="#FEF7FA" opacity="1.000000" stroke="none" 
	d="
M125.661476,73.834282 
	C121.395920,74.314034 117.554817,74.750244 113.306267,75.232727 
	C113.306267,69.596794 113.306267,64.701691 113.306267,59.338024 
	C118.002480,59.338024 122.744583,59.130688 127.459305,59.401054 
	C131.517822,59.633797 134.553574,61.797081 134.708435,66.127724 
	C134.861618,70.410637 132.110641,72.685280 128.044006,73.453239 
	C127.393272,73.576126 126.738716,73.678749 125.661476,73.834282 
z"/>
<path fill="#FEF9FA" opacity="1.000000" stroke="none" 
	d="
M263.625854,71.061340 
	C272.012665,70.407616 276.791290,74.002464 277.741180,81.308151 
	C278.590729,87.841858 273.829773,93.831833 266.790314,95.085953 
	C260.908936,96.133751 254.024384,87.465446 255.398773,80.683647 
	C256.318573,76.145042 258.681549,72.732010 263.625854,71.061340 
z"/>
<path fill="#FDECF1" opacity="1.000000" stroke="none" 
	d="
M29.139427,81.829559 
	C27.233765,81.755257 25.784176,81.681030 23.285162,81.553078 
	C25.687958,74.350754 27.902407,67.712997 30.575712,59.699821 
	C32.975338,66.782036 35.096020,72.674789 36.849739,78.674812 
	C37.071918,79.434967 35.568890,81.304192 34.512760,81.686745 
	C33.048534,82.217117 31.250572,81.826141 29.139427,81.829559 
z"/>
<path fill="#FEF5F8" opacity="1.000000" stroke="none" 
	d="
M225.728363,87.400650 
	C222.681519,93.562889 217.870651,96.287689 212.353348,94.839340 
	C210.836914,94.441254 208.797729,92.883568 208.580887,91.592255 
	C208.373535,90.357346 209.977264,87.844261 211.215591,87.515617 
	C215.681061,86.330505 220.324585,85.803909 224.918991,85.157570 
	C225.123260,85.128838 225.505402,86.364449 225.728363,87.400650 
z"/>
<path fill="#FDF1F5" opacity="1.000000" stroke="none" 
	d="
M176.786346,77.832306 
	C171.531921,77.832260 166.745285,77.832260 161.481354,77.832260 
	C163.631332,72.737518 166.766556,69.974205 172.126953,69.907890 
	C177.354279,69.843239 181.063675,71.811119 183.305191,77.832344 
	C180.975647,77.832344 179.114899,77.832344 176.786346,77.832306 
z"/>
<path fill="#FFFAFA" opacity="1.000000" stroke="none" 
	d="
M233.378098,137.014282 
	C229.459579,133.360184 228.790680,129.680099 232.894501,125.603279 
	C233.582932,125.226357 234.063614,125.094643 234.552475,125.010292 
	C237.833023,124.444221 241.333084,124.404541 242.626480,127.957001 
	C243.398911,130.078568 243.241959,133.270523 242.128006,135.178818 
	C240.367096,138.195435 237.014633,138.446411 233.378098,137.014282 
z"/>
<path fill="#FFFAFB" opacity="1.000000" stroke="none" 
	d="
M267.596863,124.854286 
	C271.019379,126.562767 273.231201,129.279617 271.801361,132.495316 
	C270.797577,134.752747 267.837158,136.140152 265.378571,137.969879 
	C260.891663,136.884506 258.116608,134.597961 258.955322,129.918488 
	C259.773529,125.353294 263.170837,124.497787 267.596863,124.854286 
z"/>
</svg>